<svg width="18" height="39" viewBox="0 0 18 39" fill="none" xmlns="http://www.w3.org/2000/svg">
<g clip-path="url(#clip0_32_83)">
<path d="M4.06585 19.4319H0V12.763H4.05634V12.4464C4.05634 10.8314 4.05634 9.21643 4.05634 7.59988C4.05634 6.4314 4.17834 5.274 4.59982 4.16727C5.31602 2.28472 6.70563 1.13999 8.5912 0.539916C9.80328 0.175897 11.0635 -0.00292706 12.329 0.00950705C14.1671 -0.0047427 16.0035 0.00950705 17.84 0.00950705C17.8812 0.00950705 17.9224 0.00950667 17.981 0.0190065V6.86206H13.6537C13.5315 6.8586 13.4091 6.86389 13.2877 6.87789C12.3766 6.9998 11.99 7.40513 11.9551 8.4612C11.9107 9.87826 11.944 11.2985 11.944 12.7551H18C17.8035 14.9718 17.6118 17.1377 17.4153 19.3401H11.9393V39.0032H4.06585V19.4319Z" fill="#F7F9FA"/>
</g>
<defs>
<clipPath id="clip0_32_83">
<rect width="18" height="39" fill="white"/>
</clipPath>
</defs>
</svg>
