<svg width="48" height="48" viewBox="0 0 48 48" fill="none" xmlns="http://www.w3.org/2000/svg">
<g clip-path="url(#clip0_32_85)">
<path d="M24.0062 0.00320384C25.2056 0.00320384 26.4051 -0.00455411 27.603 0.00320384C29.1081 0.0171682 30.6133 0.0264776 32.1169 0.0761285C33.2791 0.113367 34.4444 0.166121 35.5973 0.284042C37.9016 0.519883 40.0739 1.14828 42.0182 2.43299C44.2251 3.8632 45.906 5.97325 46.8067 8.44386C47.2961 9.73252 47.6042 11.0829 47.7222 12.4563C47.8355 13.8682 47.8929 15.2848 47.9457 16.7014C47.986 17.741 47.986 18.7821 47.9891 19.8232C47.9974 22.5323 48.001 25.2414 48 27.9504C48 29.0009 48 30.0529 47.9581 31.1017C47.9084 32.4982 47.8634 33.9055 47.7502 35.3034C47.6069 37.3138 47.0574 39.2741 46.1348 41.066C45.2421 42.7557 43.9629 44.2108 42.4015 45.3127C40.915 46.3864 39.2376 47.0273 37.4578 47.4229C36.0132 47.7173 34.5438 47.8732 33.0696 47.8884C31.8283 47.9241 30.5869 47.966 29.3533 47.9722C26.2603 47.9908 23.1683 47.998 20.0773 47.9939C18.6808 47.9939 17.2843 47.9722 15.8877 47.9241C14.7271 47.8837 13.5602 47.8325 12.4073 47.7146C10.1061 47.4788 7.92136 46.8488 5.97399 45.5579C3.91293 44.2203 2.30984 42.2849 1.37944 40.011C0.788753 38.5813 0.417837 37.0706 0.279287 35.53C0.18153 34.464 0.124116 33.3934 0.0884273 32.3244C0.0434283 30.9528 0.0232576 29.5812 0.0170509 28.208C0.00463736 25.4741 0.00101561 22.7397 0.00618791 20.0048C0.00618791 18.9698 0.00618943 17.9334 0.0465334 16.9016C0.0961875 15.4958 0.142739 14.087 0.256013 12.6859C0.392154 10.7468 0.910538 8.85369 1.78132 7.11569C2.90616 4.88009 4.70053 3.05113 6.91431 1.88373C8.41945 1.08001 10.0348 0.61453 11.7168 0.366276C13.0216 0.192807 14.3357 0.0990202 15.6519 0.0854381C17.0215 0.0481999 18.3932 0.0249261 19.767 0.0156165C21.179 0.00475542 22.5926 0.0156165 24.0062 0.0156165V0.00320384ZM43.6568 24.0032C43.6568 22.5028 43.677 21.0024 43.6568 19.5036C43.6258 17.6324 43.574 15.7617 43.5016 13.8915C43.4615 12.662 43.2479 11.4444 42.867 10.2747C42.2965 8.48098 41.1019 6.95115 39.4998 5.96286C38.1933 5.14207 36.7301 4.74797 35.2094 4.60367C34.0379 4.49195 32.8586 4.43299 31.6824 4.39886C30.1633 4.35386 28.6426 4.3399 27.122 4.33835C23.9689 4.33835 20.8159 4.33835 17.6567 4.37093C16.3564 4.38179 15.056 4.44075 13.7573 4.50902C12.5757 4.56326 11.4067 4.77565 10.2815 5.14052C8.46979 5.7128 6.92648 6.92146 5.93675 8.54316C5.12987 9.83874 4.74039 11.2879 4.59609 12.793C4.48592 13.9598 4.42695 15.1328 4.39282 16.3042C4.34626 17.8899 4.33696 19.4772 4.3323 21.0629C4.32454 23.5455 4.31679 26.028 4.34317 28.5106C4.36334 30.3818 4.42385 32.253 4.49833 34.1227C4.54074 35.3524 4.75648 36.57 5.13918 37.7394C5.71184 39.5296 6.90623 41.0558 8.50635 42.042C9.81442 42.8628 11.2761 43.2569 12.7983 43.4027C13.9699 43.5145 15.1476 43.5719 16.3253 43.606C17.8444 43.6525 19.3651 43.6665 20.8842 43.6665C24.0372 43.6665 27.1918 43.6665 30.3495 43.6355C31.6483 43.6231 32.9486 43.5641 34.2473 43.4958C35.4305 43.4453 36.6011 43.2323 37.7262 42.8628C39.8412 42.1522 41.4193 40.8147 42.417 38.8193C43.0528 37.5011 43.4104 36.0661 43.4675 34.6037C43.5637 32.9186 43.6258 31.2321 43.6537 29.5439C43.6801 27.6975 43.6568 25.8496 43.6568 24.0032Z" fill="#F7F9FA"/>
<path d="M23.9953 36.3352C22.3765 36.3346 20.7737 36.015 19.2785 35.3947C17.7832 34.7745 16.4249 33.8657 15.281 32.7203C14.1371 31.575 13.2302 30.2154 12.612 28.7194C11.9937 27.2234 11.6764 25.6203 11.678 24.0016C11.6743 22.3825 11.9905 20.7786 12.6083 19.282C13.2261 17.7854 14.1334 16.4255 15.2781 15.2804C16.4228 14.1353 17.7824 13.2276 19.2789 12.6093C20.7754 11.9909 22.3792 11.6742 23.9984 11.6773C25.6191 11.673 27.2247 11.9891 28.7227 12.6075C30.2208 13.2259 31.5819 14.1343 32.7276 15.2805C33.8733 16.4267 34.7811 17.7881 35.3987 19.2864C36.0164 20.7847 36.3317 22.3903 36.3266 24.0109C36.3272 25.63 36.0086 27.2334 35.3891 28.7293C34.7695 30.2253 33.8611 31.5844 32.7159 32.729C31.5706 33.8736 30.2109 34.7813 28.7146 35.4001C27.2182 36.0188 25.6146 36.3366 23.9953 36.3352ZM23.9953 31.9907C26.0994 31.9904 28.1184 31.1606 29.6145 29.6812C31.1105 28.2018 31.9628 26.1922 31.9865 24.0885C32.0093 21.9709 31.1907 19.9308 29.7104 18.4163C28.2301 16.9018 26.2092 16.0367 24.0915 16.0109C23.0409 15.999 21.9983 16.1943 21.0232 16.5857C20.0481 16.9771 19.1598 17.5568 18.4089 18.2917C17.6581 19.0266 17.0595 19.9024 16.6474 20.8688C16.2353 21.8352 16.0178 22.8734 16.0072 23.924C15.997 24.9803 16.1962 26.0281 16.5933 27.0069C16.9905 27.9857 17.5777 28.8761 18.3211 29.6267C19.0645 30.3772 19.9492 30.973 20.9242 31.3795C21.8992 31.7861 22.9451 31.9954 24.0015 31.9954L23.9953 31.9907Z" fill="#F7F9FA"/>
<path d="M39.6922 11.3205C39.676 11.7034 39.5837 12.0791 39.4206 12.4258C39.2574 12.7726 39.0268 13.0833 38.7422 13.3399C38.4576 13.5964 38.1247 13.7937 37.7629 13.9201C37.4012 14.0465 37.0179 14.0996 36.6354 14.0761C36.2565 14.0524 35.8861 13.9543 35.5451 13.7874C35.2042 13.6204 34.8996 13.388 34.6485 13.1032C34.3975 12.8185 34.205 12.4871 34.0822 12.128C33.9593 11.7688 33.9084 11.389 33.9323 11.0102C33.9576 10.6201 34.0618 10.2391 34.2387 9.89042C34.4155 9.54175 34.6614 9.23262 34.9613 8.98177C35.2612 8.73093 35.6089 8.5436 35.9833 8.43113C36.3578 8.31867 36.7512 8.28341 37.1397 8.3275C37.8648 8.41117 38.5313 8.76646 39.0049 9.32182C39.4785 9.87717 39.7241 10.5913 39.6922 11.3205Z" fill="#F7F9FA"/>
</g>
<defs>
<clipPath id="clip0_32_85">
<rect width="48" height="48" fill="white"/>
</clipPath>
</defs>
</svg>
