<svg width="31" height="33" viewBox="0 0 31 33" fill="none" xmlns="http://www.w3.org/2000/svg">
<g clip-path="url(#clip0_32_76)">
<path d="M21.6718 33C18.4106 32.8609 15.5817 31.6392 13.0461 29.7947C8.07269 26.1662 4.10738 21.6547 1.47249 16.097C0.0687459 13.1352 -0.484198 10.0087 0.491855 6.77472C1.06218 4.82473 2.23322 3.09958 3.8416 1.83992C4.35788 1.4302 4.83903 0.978143 5.36907 0.579004C6.37109 -0.17694 7.44184 -0.225325 8.35069 0.645523C10.1326 2.31411 11.4571 4.40335 12.1999 6.71727C12.5971 7.98423 12.2244 9.16653 11.1612 10.0555C10.5793 10.5424 9.99425 11.0277 9.38326 11.4782C8.17045 12.3717 7.81455 13.3212 8.24071 14.7756C8.71117 16.3828 9.69486 17.7042 10.7381 18.9757C12.1449 20.7038 13.6174 22.3668 15.5237 23.5915C16.3424 24.1161 17.2345 24.5681 18.2395 24.3353C18.7298 24.2219 19.2034 23.9029 19.6051 23.5794C20.2756 23.0427 20.8714 22.4167 21.5175 21.8467C22.6035 20.8897 23.8484 20.7189 25.1299 21.3433C27.1905 22.3487 28.889 23.844 30.3233 25.5917C31.3926 26.8919 31.1711 27.9472 29.9155 29.0872C28.388 30.4706 26.8728 31.8675 24.8015 32.3997C23.772 32.6643 22.715 32.7989 21.6718 33Z" fill="#F7F9FA"/>
</g>
<defs>
<clipPath id="clip0_32_76">
<rect width="31" height="33" fill="white"/>
</clipPath>
</defs>
</svg>
