<svg width="54" height="44" viewBox="0 0 54 44" fill="none" xmlns="http://www.w3.org/2000/svg">
<g clip-path="url(#clip0_32_89)">
<path d="M0 39.0429C6.05449 39.5821 11.4185 38.0994 16.182 34.4602C13.9057 34.3371 11.7154 33.5509 9.88232 32.1988C8.02872 30.8209 6.65072 28.9018 5.9394 26.7076C7.53264 26.9918 9.16901 26.9236 10.733 26.5079C8.26644 25.9152 6.06668 24.5229 4.47832 22.5492C2.86096 20.5509 2.00008 18.0484 2.04653 15.4804C3.541 16.2928 5.2043 16.7474 6.90511 16.8083C4.6231 15.1899 3.01964 12.7885 2.40177 10.064C1.77107 7.33465 2.20018 4.46822 3.60268 2.04179C9.60712 9.11054 17.2128 12.9944 26.5196 13.6483C26.4646 13.249 26.4246 12.9145 26.3745 12.58C26.1765 11.1376 26.2654 9.67047 26.6361 8.26239C27.0068 6.85431 27.6521 5.53295 28.5351 4.37386C29.418 3.21477 30.5213 2.24069 31.7819 1.50733C33.0425 0.773963 34.4356 0.295687 35.8816 0.099868C37.5671 -0.150656 39.288 -0.00243588 40.9055 0.53259C42.523 1.06762 43.9918 1.97446 45.1935 3.17996C45.2983 3.29222 45.4335 3.37179 45.5827 3.409C45.7318 3.44621 45.8887 3.43949 46.0341 3.38965C48.1903 2.90443 50.2637 2.10726 52.1887 1.02342L52.5539 0.823722C52.1999 2.09088 51.5713 3.26504 50.7126 4.26326C49.8719 5.20676 48.9112 6.04541 48.0406 6.89905C48.4209 6.83415 48.9162 6.75928 49.4116 6.65944C49.907 6.5596 50.4574 6.43481 50.9728 6.29503C51.4881 6.15525 51.9735 6.00047 52.4739 5.83074C52.972 5.63835 53.4838 5.48317 54.005 5.36648C53.5632 5.99927 53.0872 6.60756 52.579 7.1886C51.4281 8.35008 50.2406 9.47663 49.0163 10.5682C48.8633 10.6838 48.7415 10.8356 48.662 11.0099C48.5825 11.1842 48.5478 11.3756 48.561 11.5666C48.7351 19.0517 46.282 26.3621 41.6258 32.2337C37.1126 38.1879 30.4899 42.197 23.1121 43.441C15.1712 44.8787 7.67068 43.6456 0.690514 39.5421C0.525392 39.4473 0.365273 39.3474 0.190143 39.2426C0.180136 39.2027 0.150111 39.1677 0 39.0429Z" fill="#F7F9FA"/>
</g>
<defs>
<clipPath id="clip0_32_89">
<rect width="54" height="44" fill="white"/>
</clipPath>
</defs>
</svg>
